<svg xmlns="http://www.w3.org/2000/svg" width="24" height="24" viewBox="0 0 24 24">
    <g id="Group_27" data-name="Group 27" transform="translate(-331 -820)">
        <path id="Rectangle_33" fill="#fff" d="M0 0H24V24H0z" data-name="Rectangle 33" transform="translate(331 820)"/>
        <path id="bullhorn-solid" d="M20.571 3.031l-1.138.826a27.127 27.127 0 0 1-3.46 2.1 16.694 16.694 0 0 1-7.031 2.052H2v6.518l.022.112 1.429 5 .156.513h4.33l-.246-.915-1.16-4.085h2.411a16.752 16.752 0 0 1 7.009 2.076 29.989 29.989 0 0 1 3.482 2.072l1.138.826v-6.54a2.127 2.127 0 0 0 0-4.018zm-1.428 2.657v11.763a18.324 18.324 0 0 0-2.543-1.518 18 18 0 0 0-7.455-2.21V9.438a17.98 17.98 0 0 0 7.478-2.232 17.752 17.752 0 0 0 2.52-1.518zM3.429 9.438h4.285v4.286H3.429zm.246 5.714h1.361l1 3.571H4.679z" transform="translate(331 819.969)"/>
    </g>
</svg>
